<svg id="Capa_1" data-name="Capa 1" xmlns="http://www.w3.org/2000/svg" viewBox="0 0 1005 2100"><defs><style>.cls-1,.cls-4{fill:none;}.cls-1{stroke:#ccc;}.cls-2{fill:#ccc;}.cls-3,.cls-4,.cls-46,.cls-47,.cls-5{isolation:isolate;}.cls-4,.cls-46,.cls-5{font-size:10px;}.cls-4{stroke:#fff;stroke-linecap:round;stroke-linejoin:round;stroke-width:2px;}.cls-4,.cls-47,.cls-5{font-family:OpenSans-Bold, Open Sans;font-weight:700;}.cls-6{letter-spacing:-0.02em;}.cls-7{fill:#3cf197;}.cls-8{fill:#ff791c;}.cls-9{fill:#ffaf25;}.cls-10{fill:#436ef1;}.cls-11{fill:#26d2ca;}.cls-12{fill:#cf320e;}.cls-13{fill:#be2409;}.cls-14{fill:#ad1905;}.cls-15{fill:#4b49c6;}.cls-16{fill:#3393f8;}.cls-17{fill:#31e8a8;}.cls-18{fill:#80fd5c;}.cls-19{fill:#27b4e8;}.cls-20{fill:#ff8b1f;}.cls-21{fill:#fa6619;}.cls-22{fill:#47389e;}.cls-23{fill:#25c4da;}.cls-24{fill:#4af787;}.cls-25{fill:#d0e637;}.cls-26{fill:#f0cd2c;}.cls-27{fill:#ff9d22;}.cls-28{fill:#5afb77;}.cls-29{fill:#3b2766;}.cls-30{fill:#2ca4f2;}.cls-31{fill:#2adeba;}.cls-32{fill:#a9f647;}.cls-33{fill:#9e1001;}.cls-34{fill:#495ce1;}.cls-35{fill:#95fb51;}.cls-36{fill:#3b81f8;}.cls-37{fill:#e1da31;}.cls-38{fill:#900c00;}.cls-39{fill:#23171b;}.cls-40{fill:#bdef3e;}.cls-41{fill:#6cfd69;}.cls-42{fill:#fbbf28;}.cls-43{fill:#ee5415;}.cls-44{fill:#e04212;}.cls-45{fill:#940c00;}.cls-46{font-family:OpenSans-Regular, Open Sans;}.cls-47{font-size:12px;}</style></defs><title>03a</title><g id="links"><path class="cls-1" d="M100,946.09c109.17,0,109.17-794.94,218.33-794.94"/><path class="cls-1" d="M100,946.09c109.17,0,109.17-422.47,218.33-422.47"/><path class="cls-1" d="M100,946.09c109.17,0,109.17,145,218.33,145"/><path class="cls-1" d="M100,946.09c109.17,0,109.17,794.94,218.33,794.94"/><path class="cls-1" d="M318.33,151.15c109.17,0,109.17-90.27,218.34-90.27"/><path class="cls-1" d="M318.33,151.15c109.17,0,109.17-61.36,218.34-61.36"/><path class="cls-1" d="M318.33,151.15c109.17,0,109.17-.87,218.34-.87"/><path class="cls-1" d="M318.33,151.15c109.17,0,109.17,90.27,218.34,90.27"/><path class="cls-1" d="M318.33,523.62c109.17,0,109.17-195.9,218.34-195.9"/><path class="cls-1" d="M318.33,523.62c109.17,0,109.17-87.41,218.34-87.41"/><path class="cls-1" d="M318.33,523.62c109.17,0,109.17,48.19,218.34,48.19"/><path class="cls-1" d="M318.33,523.62c109.17,0,109.17,195.89,218.34,195.89"/><path class="cls-1" d="M318.33,1091.11c109.17,0,109.17-245.94,218.34-245.94"/><path class="cls-1" d="M318.33,1091.11C427.5,1091.11,427.5,912,536.67,912"/><path class="cls-1" d="M318.33,1091.11c109.17,0,109.17-75.48,218.34-75.48"/><path class="cls-1" d="M318.33,1091.11c109.17,0,109.17,90.74,218.34,90.74"/><path class="cls-1" d="M318.33,1091.11c109.17,0,109.17,246,218.34,246"/><path class="cls-1" d="M318.33,1741c109.17,0,109.17-275.86,218.34-275.86"/><path class="cls-1" d="M318.33,1741c109.17,0,109.17-195.82,218.34-195.82"/><path class="cls-1" d="M318.33,1741c109.17,0,109.17-52.38,218.34-52.38"/><path class="cls-1" d="M318.33,1741c109.17,0,109.17,148.61,218.34,148.61"/><path class="cls-1" d="M318.33,1741c109.17,0,109.17,275.85,218.34,275.85"/><path class="cls-1" d="M536.67,60.88c109.16,0,109.16-10.1,218.33-10.1"/><path class="cls-1" d="M536.67,60.88C645.83,60.88,645.83,71,755,71"/><path class="cls-1" d="M536.67,89.79H755"/><path class="cls-1" d="M536.67,150.28c109.16,0,109.16-41.68,218.33-41.68"/><path class="cls-1" d="M536.67,150.28c109.16,0,109.16-23.83,218.33-23.83"/><path class="cls-1" d="M536.67,150.28c109.16,0,109.16-4.61,218.33-4.61"/><path class="cls-1" d="M536.67,150.28c109.16,0,109.16,18,218.33,18"/><path class="cls-1" d="M536.67,150.28C645.83,150.28,645.83,192,755,192"/><path class="cls-1" d="M536.67,241.42c109.16,0,109.16-28.23,218.33-28.23"/><path class="cls-1" d="M536.67,241.42C645.83,241.42,645.83,232,755,232"/><path class="cls-1" d="M536.67,241.42c109.16,0,109.16,9.41,218.33,9.41"/><path class="cls-1" d="M536.67,241.42c109.16,0,109.16,28.22,218.33,28.22"/><path class="cls-1" d="M536.67,327.72c109.16,0,109.16-39.26,218.33-39.26"/><path class="cls-1" d="M536.67,327.72c109.16,0,109.16-19.07,218.33-19.07"/><path class="cls-1" d="M536.67,327.72c109.16,0,109.16,1.86,218.33,1.86"/><path class="cls-1" d="M536.67,327.72c109.16,0,109.16,21.42,218.33,21.42"/><path class="cls-1" d="M536.67,327.72C645.83,327.72,645.83,367,755,367"/><path class="cls-1" d="M536.67,436.21c109.16,0,109.16-52.34,218.33-52.34"/><path class="cls-1" d="M536.67,436.21c109.16,0,109.16-35.47,218.33-35.47"/><path class="cls-1" d="M536.67,436.21c109.16,0,109.16-18.59,218.33-18.59"/><path class="cls-1" d="M536.67,436.21c109.16,0,109.16-1.72,218.33-1.72"/><path class="cls-1" d="M536.67,436.21c109.16,0,109.16,15.16,218.33,15.16"/><path class="cls-1" d="M536.67,436.21C645.83,436.21,645.83,470,755,470"/><path class="cls-1" d="M536.67,436.21c109.16,0,109.16,52.34,218.33,52.34"/><path class="cls-1" d="M536.67,571.81c109.16,0,109.16-62.1,218.33-62.1"/><path class="cls-1" d="M536.67,571.81c109.16,0,109.16-37.54,218.33-37.54"/><path class="cls-1" d="M536.67,571.81c109.16,0,109.16-17.27,218.33-17.27"/><path class="cls-1" d="M536.67,571.81c109.16,0,109.16,4.67,218.33,4.67"/><path class="cls-1" d="M536.67,571.81c109.16,0,109.16,33,218.33,33"/><path class="cls-1" d="M536.67,571.81c109.16,0,109.16,62.11,218.33,62.11"/><path class="cls-1" d="M536.67,719.51c109.16,0,109.16-63,218.33-63"/><path class="cls-1" d="M536.67,719.51c109.16,0,109.16-45.1,218.33-45.1"/><path class="cls-1" d="M536.67,719.51c109.16,0,109.16-26.28,218.33-26.28"/><path class="cls-1" d="M536.67,719.51c109.16,0,109.16-8.44,218.33-8.44"/><path class="cls-1" d="M536.67,719.51C645.83,719.51,645.83,728,755,728"/><path class="cls-1" d="M536.67,719.51c109.16,0,109.16,26.29,218.33,26.29"/><path class="cls-1" d="M536.67,719.51c109.16,0,109.16,45.1,218.33,45.1"/><path class="cls-1" d="M536.67,719.51c109.16,0,109.16,63,218.33,63"/><path class="cls-1" d="M536.67,845.17c109.16,0,109.16-41.55,218.33-41.55"/><path class="cls-1" d="M536.67,845.17c109.16,0,109.16-18,218.33-18"/><path class="cls-1" d="M536.67,845.17c109.16,0,109.16,3.51,218.33,3.51"/><path class="cls-1" d="M536.67,845.17c109.16,0,109.16,23.7,218.33,23.7"/><path class="cls-1" d="M536.67,845.17c109.16,0,109.16,41.55,218.33,41.55"/><path class="cls-1" d="M536.67,912c109.16,0,109.16-8.44,218.33-8.44"/><path class="cls-1" d="M536.67,912c109.16,0,109.16,8.44,218.33,8.44"/><path class="cls-1" d="M536.67,1015.63c109.16,0,109.16-78.28,218.33-78.28"/><path class="cls-1" d="M536.67,1015.63c109.16,0,109.16-61.41,218.33-61.41"/><path class="cls-1" d="M536.67,1015.63c109.16,0,109.16-44.53,218.33-44.53"/><path class="cls-1" d="M536.67,1015.63C645.83,1015.63,645.83,988,755,988"/><path class="cls-1" d="M536.67,1015.63c109.16,0,109.16-10.78,218.33-10.78"/><path class="cls-1" d="M536.67,1015.63c109.16,0,109.16,6.09,218.33,6.09"/><path class="cls-1" d="M536.67,1015.63c109.16,0,109.16,23,218.33,23"/><path class="cls-1" d="M536.67,1015.63c109.16,0,109.16,42.19,218.33,42.19"/><path class="cls-1" d="M536.67,1015.63c109.16,0,109.16,61.41,218.33,61.41"/><path class="cls-1" d="M536.67,1015.63c109.16,0,109.16,78.28,218.33,78.28"/><path class="cls-1" d="M536.67,1181.85c109.16,0,109.16-66,218.33-66"/><path class="cls-1" d="M536.67,1181.85c109.16,0,109.16-39.77,218.33-39.77"/><path class="cls-1" d="M536.67,1181.85c109.16,0,109.16-17.64,218.33-17.64"/><path class="cls-1" d="M536.67,1181.85c109.16,0,109.16,6,218.33,6"/><path class="cls-1" d="M536.67,1181.85c109.16,0,109.16,35.66,218.33,35.66"/><path class="cls-1" d="M536.67,1181.85c109.16,0,109.16,66,218.33,66"/><path class="cls-1" d="M536.67,1337.06c109.16,0,109.16-65.93,218.33-65.93"/><path class="cls-1" d="M536.67,1337.06c109.16,0,109.16-47.34,218.33-47.34"/><path class="cls-1" d="M536.67,1337.06c109.16,0,109.16-27,218.33-27"/><path class="cls-1" d="M536.67,1337.06c109.16,0,109.16-8.44,218.33-8.44"/><path class="cls-1" d="M536.67,1337.06c109.16,0,109.16,8.44,218.33,8.44"/><path class="cls-1" d="M536.67,1337.06c109.16,0,109.16,27,218.33,27"/><path class="cls-1" d="M536.67,1337.06c109.16,0,109.16,47.33,218.33,47.33"/><path class="cls-1" d="M536.67,1337.06c109.16,0,109.16,65.93,218.33,65.93"/><path class="cls-1" d="M536.67,1465.17c109.16,0,109.16-45.31,218.33-45.31"/><path class="cls-1" d="M536.67,1465.17c109.16,0,109.16-24.15,218.33-24.15"/><path class="cls-1" d="M536.67,1465.17c109.16,0,109.16.41,218.33.41"/><path class="cls-1" d="M536.67,1465.17c109.16,0,109.16,24.07,218.33,24.07"/><path class="cls-1" d="M536.67,1465.17c109.16,0,109.16,45.32,218.33,45.32"/><path class="cls-1" d="M536.67,1545.21c109.16,0,109.16-16.88,218.33-16.88"/><path class="cls-1" d="M536.67,1545.21H755"/><path class="cls-1" d="M536.67,1545.21c109.16,0,109.16,16.87,218.33,16.87"/><path class="cls-1" d="M536.67,1688.65C645.83,1688.65,645.83,1579,755,1579"/><path class="cls-1" d="M536.67,1688.65c109.16,0,109.16-92.81,218.33-92.81"/><path class="cls-1" d="M536.67,1688.65c109.16,0,109.16-75.94,218.33-75.94"/><path class="cls-1" d="M536.67,1688.65c109.16,0,109.16-59.06,218.33-59.06"/><path class="cls-1" d="M536.67,1688.65c109.16,0,109.16-42.19,218.33-42.19"/><path class="cls-1" d="M536.67,1688.65c109.16,0,109.16-25.31,218.33-25.31"/><path class="cls-1" d="M536.67,1688.65c109.16,0,109.16-8.44,218.33-8.44"/><path class="cls-1" d="M536.67,1688.65c109.16,0,109.16,8.44,218.33,8.44"/><path class="cls-1" d="M536.67,1688.65c109.16,0,109.16,25.32,218.33,25.32"/><path class="cls-1" d="M536.67,1688.65c109.16,0,109.16,42.19,218.33,42.19"/><path class="cls-1" d="M536.67,1688.65c109.16,0,109.16,59.07,218.33,59.07"/><path class="cls-1" d="M536.67,1688.65c109.16,0,109.16,75.94,218.33,75.94"/><path class="cls-1" d="M536.67,1688.65c109.16,0,109.16,92.82,218.33,92.82"/><path class="cls-1" d="M536.67,1688.65c109.16,0,109.16,109.7,218.33,109.7"/><path class="cls-1" d="M536.67,1889.64c109.16,0,109.16-68.65,218.33-68.65"/><path class="cls-1" d="M536.67,1889.64c109.16,0,109.16-40.93,218.33-40.93"/><path class="cls-1" d="M536.67,1889.64c109.16,0,109.16-18,218.33-18"/><path class="cls-1" d="M536.67,1889.64c109.16,0,109.16,6.25,218.33,6.25"/><path class="cls-1" d="M536.67,1889.64c109.16,0,109.16,37.15,218.33,37.15"/><path class="cls-1" d="M536.67,1889.64c109.16,0,109.16,68.65,218.33,68.65"/><path class="cls-1" d="M536.67,2016.88c109.16,0,109.16-32.35,218.33-32.35"/><path class="cls-1" d="M536.67,2016.88c109.16,0,109.16-10.78,218.33-10.78"/><path class="cls-1" d="M536.67,2016.88c109.16,0,109.16,10.78,218.33,10.78"/><path class="cls-1" d="M536.67,2016.88c109.16,0,109.16,32.34,218.33,32.34"/></g><circle class="cls-2" cx="100" cy="946.09" r="5"/><circle class="cls-2" cx="318.33" cy="151.15" r="5"/><g class="cls-3"><text class="cls-4" transform="translate(225.86 145.65)">Classical orchestra</text><text class="cls-5" transform="translate(225.86 145.65)">Classical orchestra</text></g><circle class="cls-2" cx="318.33" cy="523.62" r="5"/><g class="cls-3"><text class="cls-4" transform="translate(198.07 518.12)">Early Romantic orchestra</text><text class="cls-5" transform="translate(198.07 518.12)">Early Romantic orchestra</text></g><circle class="cls-2" cx="318.33" cy="1091.11" r="5"/><g class="cls-3"><text class="cls-4" transform="translate(201.39 1085.61)">Late Romantic orchestra</text><text class="cls-5" transform="translate(201.39 1085.61)">Late Romantic orchestra</text></g><circle class="cls-2" cx="318.33" cy="1741.03" r="5"/><g class="cls-3"><text class="cls-4" transform="translate(231.96 1735.53)">Modern orchestra</text><text class="cls-5" transform="translate(231.96 1735.53)">Modern orchestra</text></g><circle class="cls-2" cx="536.67" cy="60.88" r="5"/><g class="cls-3"><text class="cls-4" transform="translate(503.11 55.38)">Brass</text><text class="cls-5" transform="translate(503.11 55.38)">Brass</text></g><circle class="cls-2" cx="536.67" cy="89.79" r="5"/><g class="cls-3"><text class="cls-4" transform="translate(479.2 84.29)">Percussion</text><text class="cls-5" transform="translate(479.2 84.29)">Percussion</text></g><g class="cls-3"><text class="cls-4" transform="translate(497.54 144.78)">Str<tspan class="cls-6" x="14.39" y="0">i</tspan><tspan x="17.24" y="0">ngs</tspan></text><text class="cls-5" transform="translate(497.54 144.78)">Strings</text></g><circle class="cls-2" cx="536.67" cy="150.28" r="5"/><circle class="cls-2" cx="536.67" cy="241.42" r="5"/><g class="cls-3"><text class="cls-4" transform="translate(477.16 235.92)">Woodwinds</text><text class="cls-5" transform="translate(477.16 235.92)">Woodwinds</text></g><circle class="cls-2" cx="536.67" cy="327.72" r="5"/><g class="cls-3"><text class="cls-4" transform="translate(503.11 322.22)">Brass</text><text class="cls-5" transform="translate(503.11 322.22)">Brass</text></g><g class="cls-3"><text class="cls-4" transform="translate(479.2 430.71)">Percussion</text><text class="cls-5" transform="translate(479.2 430.71)">Percussion</text></g><circle class="cls-2" cx="536.67" cy="436.21" r="5"/><circle class="cls-2" cx="536.67" cy="571.81" r="5"/><g class="cls-3"><text class="cls-4" transform="translate(497.54 566.31)">Strings</text><text class="cls-5" transform="translate(497.54 566.31)">Strings</text></g><circle class="cls-2" cx="536.67" cy="719.51" r="5"/><g class="cls-3"><text class="cls-4" transform="translate(477.16 714.01)">Woodwinds</text><text class="cls-5" transform="translate(477.16 714.01)">Woodwinds</text></g><circle class="cls-2" cx="536.67" cy="845.17" r="5"/><g class="cls-3"><text class="cls-4" transform="translate(503.11 839.67)">Brass</text><text class="cls-5" transform="translate(503.11 839.67)">Brass</text></g><circle class="cls-2" cx="536.67" cy="912.03" r="5"/><g class="cls-3"><text class="cls-4" transform="translate(480.86 906.53)">Keyboards</text><text class="cls-5" transform="translate(480.86 906.53)">Keyboards</text></g><circle class="cls-2" cx="536.67" cy="1015.63" r="5"/><g class="cls-3"><text class="cls-4" transform="translate(479.2 1010.13)">Percussion</text><text class="cls-5" transform="translate(479.2 1010.13)">Percussion</text></g><circle class="cls-2" cx="536.67" cy="1181.85" r="5"/><g class="cls-3"><text class="cls-4" transform="translate(497.54 1176.35)">Strings</text><text class="cls-5" transform="translate(497.54 1176.35)">Strings</text></g><circle class="cls-2" cx="536.67" cy="1337.06" r="5"/><g class="cls-3"><text class="cls-4" transform="translate(477.16 1331.56)">Woodwinds</text><text class="cls-5" transform="translate(477.16 1331.56)">Woodwinds</text></g><circle class="cls-2" cx="536.67" cy="1465.17" r="5"/><g class="cls-3"><text class="cls-4" transform="translate(503.11 1459.67)">Brass</text><text class="cls-5" transform="translate(503.11 1459.67)">Brass</text></g><circle class="cls-2" cx="536.67" cy="1545.21" r="5"/><g class="cls-3"><text class="cls-4" transform="translate(480.86 1539.71)">Keyboards</text><text class="cls-5" transform="translate(480.86 1539.71)">Keyboards</text></g><circle class="cls-2" cx="536.67" cy="1688.65" r="5"/><g class="cls-3"><text class="cls-4" transform="translate(479.2 1683.15)">Percussion</text><text class="cls-5" transform="translate(479.2 1683.15)">Percussion</text></g><circle class="cls-2" cx="536.67" cy="1889.64" r="5"/><g class="cls-3"><text class="cls-4" transform="translate(497.54 1884.14)">Strings</text><text class="cls-5" transform="translate(497.54 1884.14)">Strings</text></g><circle class="cls-2" cx="536.67" cy="2016.88" r="5"/><g class="cls-3"><text class="cls-4" transform="translate(477.16 2011.38)">Woodwinds</text><text class="cls-5" transform="translate(477.16 2011.38)">Woodwinds</text></g><g id="French_Horns" data-name="French Horns"><circle class="cls-7" cx="755" cy="50.78" r="4.71"/></g><g id="Trumpets"><circle class="cls-8" cx="755" cy="70.97" r="3.33"/></g><g id="Timpani"><circle class="cls-9" cx="755" cy="89.79" r="3.33"/></g><g id="Cellos"><circle class="cls-10" cx="755" cy="108.6" r="3.33"/></g><g id="Double_basses" data-name="Double basses"><circle class="cls-11" cx="755" cy="126.45" r="2.36"/></g><g id="Violas"><circle class="cls-12" cx="755" cy="145.67" r="4.71"/></g><g id="Violins_1" data-name="Violins 1"><circle class="cls-13" cx="755" cy="168.28" r="5.77"/></g><g id="Violins_2" data-name="Violins 2"><circle class="cls-14" cx="755" cy="191.95" r="5.77"/></g><g id="Bassoons"><circle class="cls-15" cx="755" cy="213.19" r="3.33"/></g><g id="Clarinets"><circle class="cls-16" cx="755" cy="232.01" r="3.33"/></g><g id="Flutes"><circle class="cls-17" cx="755" cy="250.83" r="3.33"/></g><g id="Oboes"><circle class="cls-18" cx="755" cy="269.64" r="3.33"/></g><g id="Cornet"><circle class="cls-19" cx="755" cy="288.46" r="3.33"/></g><g id="French_Horns-2" data-name="French Horns"><circle class="cls-7" cx="755" cy="308.65" r="4.71"/></g><g id="Trombones"><circle class="cls-20" cx="755" cy="329.58" r="4.08"/></g><g id="Trumpets-2" data-name="Trumpets"><circle class="cls-8" cx="755" cy="349.14" r="3.33"/></g><g id="Tubas"><circle class="cls-21" cx="755" cy="366.99" r="2.36"/></g><g id="Bass_Drum" data-name="Bass Drum"><circle class="cls-22" cx="755" cy="383.87" r="2.36"/></g><g id="Cymbals"><circle class="cls-23" cx="755" cy="400.74" r="2.36"/></g><g id="Glockenspiel"><circle class="cls-24" cx="755" cy="417.62" r="2.36"/></g><g id="Snare_Drum" data-name="Snare Drum"><circle class="cls-25" cx="755" cy="434.49" r="2.36"/></g><g id="Tambourine"><circle class="cls-26" cx="755" cy="451.37" r="2.36"/></g><g id="Timpani-2" data-name="Timpani"><circle class="cls-9" cx="755" cy="469.96" r="4.08"/></g><g id="Triangle"><circle class="cls-27" cx="755" cy="488.55" r="2.36"/></g><g id="Cellos-2" data-name="Cellos"><circle class="cls-10" cx="755" cy="509.71" r="6.67"/></g><g id="Double_basses-2" data-name="Double basses"><circle class="cls-11" cx="755" cy="534.27" r="5.77"/></g><g id="Harps"><circle class="cls-28" cx="755" cy="554.54" r="2.36"/></g><g id="Violas-2" data-name="Violas"><circle class="cls-12" cx="755" cy="576.48" r="7.45"/></g><g id="Violins_1-2" data-name="Violins 1"><circle class="cls-13" cx="755" cy="604.84" r="8.82"/></g><g id="Violins_2-2" data-name="Violins 2"><circle class="cls-14" cx="755" cy="633.92" r="8.16"/></g><g id="Bass_Clarinet" data-name="Bass Clarinet"><circle class="cls-29" cx="755" cy="656.56" r="2.36"/></g><g id="Bassoons-2" data-name="Bassoons"><circle class="cls-15" cx="755" cy="674.41" r="3.33"/></g><g id="Clarinets-2" data-name="Clarinets"><circle class="cls-16" cx="755" cy="693.23" r="3.33"/></g><g id="Contrabassoon"><circle class="cls-30" cx="755" cy="711.07" r="2.36"/></g><g id="English_Horn" data-name="English Horn"><circle class="cls-31" cx="755" cy="727.95" r="2.36"/></g><g id="Flutes-2" data-name="Flutes"><circle class="cls-17" cx="755" cy="745.8" r="3.33"/></g><g id="Oboes-2" data-name="Oboes"><circle class="cls-18" cx="755" cy="764.61" r="3.33"/></g><g id="Piccolo"><circle class="cls-32" cx="755" cy="782.46" r="2.36"/></g><g id="French_Horns-3" data-name="French Horns"><circle class="cls-7" cx="755" cy="803.62" r="6.67"/></g><g id="Trombones-2" data-name="Trombones"><circle class="cls-20" cx="755" cy="827.12" r="4.71"/></g><g id="Trumpets-3" data-name="Trumpets"><circle class="cls-8" cx="755" cy="848.68" r="4.71"/></g><g id="Tubas-2" data-name="Tubas"><circle class="cls-21" cx="755" cy="868.87" r="3.33"/></g><g id="Wagner_Tuba" data-name="Wagner Tuba"><circle class="cls-33" cx="755" cy="886.72" r="2.36"/></g><g id="Celesta"><circle class="cls-34" cx="755" cy="903.59" r="2.36"/></g><g id="Piano"><circle class="cls-35" cx="755" cy="920.47" r="2.36"/></g><g id="Bass_Drum-2" data-name="Bass Drum"><circle class="cls-22" cx="755" cy="937.35" r="2.36"/></g><g id="Chimes"><circle class="cls-36" cx="755" cy="954.22" r="2.36"/></g><g id="Cymbals-2" data-name="Cymbals"><circle class="cls-23" cx="755" cy="971.1" r="2.36"/></g><g id="Glockenspiel-2" data-name="Glockenspiel"><circle class="cls-24" cx="755" cy="987.97" r="2.36"/></g><g id="Snare_Drum-2" data-name="Snare Drum"><circle class="cls-25" cx="755" cy="1004.85" r="2.36"/></g><g id="Tam-tam"><circle class="cls-37" cx="755" cy="1021.72" r="2.36"/></g><g id="Tambourine-2" data-name="Tambourine"><circle class="cls-26" cx="755" cy="1038.6" r="2.36"/></g><g id="Timpani-3" data-name="Timpani"><circle class="cls-9" cx="755" cy="1057.82" r="4.71"/></g><g id="Triangle-2" data-name="Triangle"><circle class="cls-27" cx="755" cy="1077.04" r="2.36"/></g><g id="Xylophone"><circle class="cls-38" cx="755" cy="1093.91" r="2.36"/></g><g id="Cellos-3" data-name="Cellos"><circle class="cls-10" cx="755" cy="1115.86" r="7.45"/></g><g id="Double_basses-3" data-name="Double basses"><circle class="cls-11" cx="755" cy="1142.08" r="6.67"/></g><g id="Harps-2" data-name="Harps"><circle class="cls-28" cx="755" cy="1164.21" r="3.33"/></g><g id="Violas-3" data-name="Violas"><circle class="cls-12" cx="755" cy="1187.83" r="8.16"/></g><g id="Violins_1-3" data-name="Violins 1"><circle class="cls-13" cx="755" cy="1217.51" r="9.43"/></g><g id="Violins_2-3" data-name="Violins 2"><circle class="cls-14" cx="755" cy="1247.83" r="8.82"/></g><g id="Bass_Clarinet-2" data-name="Bass Clarinet"><circle class="cls-29" cx="755" cy="1271.13" r="2.36"/></g><g id="Bassoons-3" data-name="Bassoons"><circle class="cls-15" cx="755" cy="1289.72" r="4.08"/></g><g id="Clarinets-3" data-name="Clarinets"><circle class="cls-16" cx="755" cy="1310.03" r="4.08"/></g><g id="Contrabassoon-2" data-name="Contrabassoon"><circle class="cls-30" cx="755" cy="1328.62" r="2.36"/></g><g id="English_Horn-2" data-name="English Horn"><circle class="cls-31" cx="755" cy="1345.5" r="2.36"/></g><g id="Flutes-3" data-name="Flutes"><circle class="cls-17" cx="755" cy="1364.09" r="4.08"/></g><g id="Oboes-3" data-name="Oboes"><circle class="cls-18" cx="755" cy="1384.39" r="4.08"/></g><g id="Piccolo-2" data-name="Piccolo"><circle class="cls-32" cx="755" cy="1402.99" r="2.36"/></g><g id="Baritone_horn" data-name="Baritone horn"><circle class="cls-39" cx="755" cy="1419.86" r="2.36"/></g><g id="French_Horns-4" data-name="French Horns"><circle class="cls-7" cx="755" cy="1441.02" r="6.67"/></g><g id="Trombones-3" data-name="Trombones"><circle class="cls-20" cx="755" cy="1465.58" r="5.77"/></g><g id="Trumpets-4" data-name="Trumpets"><circle class="cls-8" cx="755" cy="1489.24" r="5.77"/></g><g id="Tubas-3" data-name="Tubas"><circle class="cls-21" cx="755" cy="1510.49" r="3.33"/></g><g id="Celesta-2" data-name="Celesta"><circle class="cls-34" cx="755" cy="1528.33" r="2.36"/></g><g id="Piano-2" data-name="Piano"><circle class="cls-35" cx="755" cy="1545.21" r="2.36"/></g><g id="Pipe_organ" data-name="Pipe organ"><circle class="cls-40" cx="755" cy="1562.08" r="2.36"/></g><g id="Bass_Drum-3" data-name="Bass Drum"><circle class="cls-22" cx="755" cy="1578.96" r="2.36"/></g><g id="Cymbals-3" data-name="Cymbals"><circle class="cls-23" cx="755" cy="1595.84" r="2.36"/></g><g id="Glockenspiel-3" data-name="Glockenspiel"><circle class="cls-24" cx="755" cy="1612.71" r="2.36"/></g><g id="Marimba"><circle class="cls-41" cx="755" cy="1629.59" r="2.36"/></g><g id="Snare_Drum-3" data-name="Snare Drum"><circle class="cls-25" cx="755" cy="1646.46" r="2.36"/></g><g id="Tam-tam-2" data-name="Tam-tam"><circle class="cls-37" cx="755" cy="1663.34" r="2.36"/></g><g id="Tambourine-3" data-name="Tambourine"><circle class="cls-26" cx="755" cy="1680.21" r="2.36"/></g><g id="Tenor_drum" data-name="Tenor drum"><circle class="cls-42" cx="755" cy="1697.09" r="2.36"/></g><g id="Timpani-4" data-name="Timpani"><circle class="cls-9" cx="755" cy="1713.97" r="2.36"/></g><g id="Triangle-3" data-name="Triangle"><circle class="cls-27" cx="755" cy="1730.84" r="2.36"/></g><g id="Tubular_bells" data-name="Tubular bells"><circle class="cls-43" cx="755" cy="1747.72" r="2.36"/></g><g id="Vibraphone"><circle class="cls-44" cx="755" cy="1764.59" r="2.36"/></g><g id="Wood_block" data-name="Wood block"><circle class="cls-45" cx="755" cy="1781.47" r="2.36"/></g><g id="Xylophone-2" data-name="Xylophone"><circle class="cls-38" cx="755" cy="1798.35" r="2.36"/></g><g id="Cellos-4" data-name="Cellos"><circle class="cls-10" cx="755" cy="1820.99" r="8.16"/></g><g id="Double_basses-4" data-name="Double basses"><circle class="cls-11" cx="755" cy="1848.71" r="7.45"/></g><g id="Harps-3" data-name="Harps"><circle class="cls-28" cx="755" cy="1871.62" r="3.33"/></g><g id="Violas-4" data-name="Violas"><circle class="cls-12" cx="755" cy="1895.89" r="8.82"/></g><g id="Violins_1-4" data-name="Violins 1"><circle class="cls-13" cx="755" cy="1926.79" r="10"/></g><g id="Violins_2-4" data-name="Violins 2"><circle class="cls-14" cx="755" cy="1958.29" r="9.43"/></g><g id="Bassoons-4" data-name="Bassoons"><circle class="cls-15" cx="755" cy="1984.53" r="4.71"/></g><g id="Clarinets-4" data-name="Clarinets"><circle class="cls-16" cx="755" cy="2006.1" r="4.71"/></g><g id="Flutes-4" data-name="Flutes"><circle class="cls-17" cx="755" cy="2027.66" r="4.71"/></g><g id="Oboes-4" data-name="Oboes"><circle class="cls-18" cx="755" cy="2049.22" r="4.71"/></g><g class="cls-3"><text class="cls-46" transform="translate(835 61)">0.0</text></g><circle class="cls-1" cx="820" cy="82" r="10"/><g class="cls-3"><text class="cls-46" transform="translate(835 87)">18.0</text></g><g class="cls-3"><text class="cls-47" transform="translate(810 40)">Number</text></g><rect class="cls-39" x="810" y="141" width="15" height="15"/><g class="cls-3"><text class="cls-46" transform="translate(830 153.5)">Baritone horn</text></g><rect class="cls-29" x="810" y="162" width="15" height="15"/><g class="cls-3"><text class="cls-46" transform="translate(830 174.5)">Bass Clarinet</text></g><rect class="cls-22" x="810" y="183" width="15" height="15"/><g class="cls-3"><text class="cls-46" transform="translate(830 195.5)">Bass Drum</text></g><rect class="cls-15" x="810" y="204" width="15" height="15"/><g class="cls-3"><text class="cls-46" transform="translate(830 216.5)">Bassoons</text></g><rect class="cls-34" x="810" y="225" width="15" height="15"/><g class="cls-3"><text class="cls-46" transform="translate(830 237.5)">Celesta</text></g><rect class="cls-10" x="810" y="246" width="15" height="15"/><g class="cls-3"><text class="cls-46" transform="translate(830 258.5)">Cellos</text></g><rect class="cls-36" x="810" y="267" width="15" height="15"/><g class="cls-3"><text class="cls-46" transform="translate(830 279.5)">Chimes</text></g><rect class="cls-16" x="810" y="288" width="15" height="15"/><g class="cls-3"><text class="cls-46" transform="translate(830 300.5)">Clarinets</text></g><rect class="cls-30" x="810" y="309" width="15" height="15"/><g class="cls-3"><text class="cls-46" transform="translate(830 321.5)">Contrabassoon</text></g><rect class="cls-19" x="810" y="330" width="15" height="15"/><g class="cls-3"><text class="cls-46" transform="translate(830 342.5)">Cornet</text></g><rect class="cls-23" x="810" y="351" width="15" height="15"/><g class="cls-3"><text class="cls-46" transform="translate(830 363.5)">Cymbals</text></g><rect class="cls-11" x="810" y="372" width="15" height="15"/><g class="cls-3"><text class="cls-46" transform="translate(830 384.5)">Double basses</text></g><rect class="cls-31" x="810" y="393" width="15" height="15"/><g class="cls-3"><text class="cls-46" transform="translate(830 405.5)">English Horn</text></g><rect class="cls-17" x="810" y="414" width="15" height="15"/><g class="cls-3"><text class="cls-46" transform="translate(830 426.5)">Flutes</text></g><rect class="cls-7" x="810" y="435" width="15" height="15"/><g class="cls-3"><text class="cls-46" transform="translate(830 447.5)">French Horns</text></g><rect class="cls-24" x="810" y="456" width="15" height="15"/><g class="cls-3"><text class="cls-46" transform="translate(830 468.5)">Glockenspiel</text></g><rect class="cls-28" x="810" y="477" width="15" height="15"/><g class="cls-3"><text class="cls-46" transform="translate(830 489.5)">Harps</text></g><rect class="cls-41" x="810" y="498" width="15" height="15"/><g class="cls-3"><text class="cls-46" transform="translate(830 510.5)">Marimba</text></g><rect class="cls-18" x="810" y="519" width="15" height="15"/><g class="cls-3"><text class="cls-46" transform="translate(830 531.5)">Oboes</text></g><rect class="cls-35" x="810" y="540" width="15" height="15"/><g class="cls-3"><text class="cls-46" transform="translate(830 552.5)">Piano</text></g><rect class="cls-32" x="810" y="561" width="15" height="15"/><g class="cls-3"><text class="cls-46" transform="translate(830 573.5)">Piccolo</text></g><rect class="cls-40" x="810" y="582" width="15" height="15"/><g class="cls-3"><text class="cls-46" transform="translate(830 594.5)">Pipe organ</text></g><rect class="cls-25" x="810" y="603" width="15" height="15"/><g class="cls-3"><text class="cls-46" transform="translate(830 615.5)">Snare Drum</text></g><rect class="cls-37" x="810" y="624" width="15" height="15"/><g class="cls-3"><text class="cls-46" transform="translate(830 636.5)">Tam-tam</text></g><rect class="cls-26" x="810" y="645" width="15" height="15"/><g class="cls-3"><text class="cls-46" transform="translate(830 657.5)">Tambourine</text></g><rect class="cls-42" x="810" y="666" width="15" height="15"/><g class="cls-3"><text class="cls-46" transform="translate(830 678.5)">Tenor drum</text></g><rect class="cls-9" x="810" y="687" width="15" height="15"/><g class="cls-3"><text class="cls-46" transform="translate(830 699.5)">Timpani</text></g><rect class="cls-27" x="810" y="708" width="15" height="15"/><g class="cls-3"><text class="cls-46" transform="translate(830 720.5)">Triangle</text></g><rect class="cls-20" x="810" y="729" width="15" height="15"/><g class="cls-3"><text class="cls-46" transform="translate(830 741.5)">Trombones</text></g><rect class="cls-8" x="810" y="750" width="15" height="15"/><g class="cls-3"><text class="cls-46" transform="translate(830 762.5)">Trumpets</text></g><rect class="cls-21" x="810" y="771" width="15" height="15"/><g class="cls-3"><text class="cls-46" transform="translate(830 783.5)">Tubas</text></g><rect class="cls-43" x="810" y="792" width="15" height="15"/><g class="cls-3"><text class="cls-46" transform="translate(830 804.5)">Tubular bells</text></g><rect class="cls-44" x="810" y="813" width="15" height="15"/><g class="cls-3"><text class="cls-46" transform="translate(830 825.5)">Vibraphone</text></g><rect class="cls-12" x="810" y="834" width="15" height="15"/><g class="cls-3"><text class="cls-46" transform="translate(830 846.5)">Violas</text></g><rect class="cls-13" x="810" y="855" width="15" height="15"/><g class="cls-3"><text class="cls-46" transform="translate(830 867.5)">Violins 1</text></g><rect class="cls-14" x="810" y="876" width="15" height="15"/><g class="cls-3"><text class="cls-46" transform="translate(830 888.5)">Violins 2</text></g><rect class="cls-33" x="810" y="897" width="15" height="15"/><g class="cls-3"><text class="cls-46" transform="translate(830 909.5)">Wagner Tuba</text></g><rect class="cls-45" x="810" y="918" width="15" height="15"/><g class="cls-3"><text class="cls-46" transform="translate(830 930.5)">Wood block</text></g><rect class="cls-38" x="810" y="939" width="15" height="15"/><g class="cls-3"><text class="cls-46" transform="translate(830 951.5)">Xylophone</text></g><g class="cls-3"><text class="cls-47" transform="translate(810 125)">Instrument</text></g></svg>